<svg width="1326" height="503" viewBox="0 0 1326 503" fill="none" xmlns="http://www.w3.org/2000/svg">
<g filter="url(#filter0_d_15_35)">
<path d="M4 50C4 22.3858 26.3858 0 54 0H1272C1299.61 0 1322 22.3858 1322 50V445C1322 472.614 1299.61 495 1272 495H54C26.3858 495 4 472.614 4 445V50Z" fill="#F4F9F3"/>
<path d="M4.5 50C4.5 22.6619 26.6619 0.5 54 0.5H1272C1299.34 0.5 1321.5 22.6619 1321.5 50V445C1321.5 472.338 1299.34 494.5 1272 494.5H54C26.6619 494.5 4.5 472.338 4.5 445V50Z" stroke="white"/>
</g>
<defs>
<filter id="filter0_d_15_35" x="0" y="0" width="1326" height="503" filterUnits="userSpaceOnUse" color-interpolation-filters="sRGB">
<feFlood flood-opacity="0" result="BackgroundImageFix"/>
<feColorMatrix in="SourceAlpha" type="matrix" values="0 0 0 0 0 0 0 0 0 0 0 0 0 0 0 0 0 0 127 0" result="hardAlpha"/>
<feOffset dy="4"/>
<feGaussianBlur stdDeviation="2"/>
<feComposite in2="hardAlpha" operator="out"/>
<feColorMatrix type="matrix" values="0 0 0 0 0 0 0 0 0 0 0 0 0 0 0 0 0 0 0.25 0"/>
<feBlend mode="normal" in2="BackgroundImageFix" result="effect1_dropShadow_15_35"/>
<feBlend mode="normal" in="SourceGraphic" in2="effect1_dropShadow_15_35" result="shape"/>
</filter>
</defs>
</svg>
